<?xml version="1.0" encoding="UTF-8" standalone="no"?>
<!DOCTYPE svg PUBLIC "-//W3C//DTD SVG 1.1//EN"
 "http://www.w3.org/Graphics/SVG/1.1/DTD/svg11.dtd">
<!-- Generated by graphviz version 13.1.1 (20250719.2154)
 -->
<!-- Pages: 1 -->
<svg width="720pt" height="27pt"
 viewBox="0.00 0.00 720.00 27.00" xmlns="http://www.w3.org/2000/svg" xmlns:xlink="http://www.w3.org/1999/xlink">
<g id="graph0" class="graph" transform="scale(0.145383 0.145383) rotate(0) translate(4 184)">
<polygon fill="white" stroke="none" points="-4,4 -4,-184 4948.43,-184 4948.43,4 -4,4"/>
<!-- A -->
<g id="node1" class="node">
<title>A</title>
<ellipse fill="none" stroke="black" cx="2381.48" cy="-162" rx="119.42" ry="18"/>
<text xml:space="preserve" text-anchor="middle" x="2381.48" y="-156.95" font-family="Times,serif" font-size="14.00">IA3 Digital Solutions Project</text>
</g>
<!-- B0 -->
<g id="node2" class="node">
<title>B0</title>
<ellipse fill="none" stroke="black" cx="327.48" cy="-90" rx="66.19" ry="18"/>
<text xml:space="preserve" text-anchor="middle" x="327.48" y="-84.95" font-family="Times,serif" font-size="14.00">Proto&#45;personas</text>
</g>
<!-- A&#45;&gt;B0 -->
<g id="edge1" class="edge">
<title>A&#45;&gt;B0</title>
<path fill="none" stroke="black" d="M2265.57,-157.46C1999.68,-149.3 1325.32,-128.27 761.48,-108 636.17,-103.5 490.54,-97.67 403.86,-94.14"/>
<polygon fill="black" stroke="black" points="404.19,-90.65 394.06,-93.74 403.91,-97.65 404.19,-90.65"/>
</g>
<!-- B1 -->
<g id="node3" class="node">
<title>B1</title>
<ellipse fill="none" stroke="black" cx="876.48" cy="-90" rx="106.11" ry="18"/>
<text xml:space="preserve" text-anchor="middle" x="876.48" y="-84.95" font-family="Times,serif" font-size="14.00">Problem and Opportunity</text>
</g>
<!-- A&#45;&gt;B1 -->
<g id="edge2" class="edge">
<title>A&#45;&gt;B1</title>
<path fill="none" stroke="black" d="M2268.67,-155.75C1989.26,-142.76 1267.6,-109.19 988.76,-96.22"/>
<polygon fill="black" stroke="black" points="989.08,-92.73 978.93,-95.77 988.76,-99.73 989.08,-92.73"/>
</g>
<!-- B2 -->
<g id="node4" class="node">
<title>B2</title>
<ellipse fill="none" stroke="black" cx="1421.48" cy="-90" rx="107.14" ry="18"/>
<text xml:space="preserve" text-anchor="middle" x="1421.48" y="-84.95" font-family="Times,serif" font-size="14.00">Key Areas of Study (IA3)</text>
</g>
<!-- A&#45;&gt;B2 -->
<g id="edge3" class="edge">
<title>A&#45;&gt;B2</title>
<path fill="none" stroke="black" d="M2275.99,-153.31C2092.2,-139.91 1715.16,-112.41 1529.56,-98.88"/>
<polygon fill="black" stroke="black" points="1529.89,-95.4 1519.67,-98.16 1529.39,-102.38 1529.89,-95.4"/>
</g>
<!-- B3 -->
<g id="node5" class="node">
<title>B3</title>
<ellipse fill="none" stroke="black" cx="1952.48" cy="-90" rx="116.86" ry="18"/>
<text xml:space="preserve" text-anchor="middle" x="1952.48" y="-84.95" font-family="Times,serif" font-size="14.00">Data Exchange Components</text>
</g>
<!-- A&#45;&gt;B3 -->
<g id="edge4" class="edge">
<title>A&#45;&gt;B3</title>
<path fill="none" stroke="black" d="M2302.54,-148.12C2228.73,-136.08 2118.64,-118.11 2041.68,-105.55"/>
<polygon fill="black" stroke="black" points="2042.5,-102.14 2032.06,-103.99 2041.37,-109.05 2042.5,-102.14"/>
</g>
<!-- B4 -->
<g id="node6" class="node">
<title>B4</title>
<ellipse fill="none" stroke="black" cx="2381.48" cy="-90" rx="96.9" ry="18"/>
<text xml:space="preserve" text-anchor="middle" x="2381.48" y="-84.95" font-family="Times,serif" font-size="14.00">Solution Specifications</text>
</g>
<!-- A&#45;&gt;B4 -->
<g id="edge5" class="edge">
<title>A&#45;&gt;B4</title>
<path fill="none" stroke="black" d="M2381.48,-143.7C2381.48,-136.41 2381.48,-127.73 2381.48,-119.54"/>
<polygon fill="black" stroke="black" points="2384.98,-119.62 2381.48,-109.62 2377.98,-119.62 2384.98,-119.62"/>
</g>
<!-- B5 -->
<g id="node7" class="node">
<title>B5</title>
<ellipse fill="none" stroke="black" cx="2876.48" cy="-90" rx="56.47" ry="18"/>
<text xml:space="preserve" text-anchor="middle" x="2876.48" y="-84.95" font-family="Times,serif" font-size="14.00">User Stories</text>
</g>
<!-- A&#45;&gt;B5 -->
<g id="edge6" class="edge">
<title>A&#45;&gt;B5</title>
<path fill="none" stroke="black" d="M2466.57,-148.97C2565.51,-134.98 2726.44,-112.22 2814.34,-99.79"/>
<polygon fill="black" stroke="black" points="2814.82,-103.25 2824.23,-98.39 2813.84,-96.32 2814.82,-103.25"/>
</g>
<!-- B6 -->
<g id="node8" class="node">
<title>B6</title>
<ellipse fill="none" stroke="black" cx="3467.48" cy="-90" rx="72.85" ry="18"/>
<text xml:space="preserve" text-anchor="middle" x="3467.48" y="-84.95" font-family="Times,serif" font-size="14.00">Mind Map Flow</text>
</g>
<!-- A&#45;&gt;B6 -->
<g id="edge7" class="edge">
<title>A&#45;&gt;B6</title>
<path fill="none" stroke="black" d="M2489.58,-154.03C2707.11,-140.01 3193.39,-108.67 3386.34,-96.23"/>
<polygon fill="black" stroke="black" points="3386.53,-99.73 3396.28,-95.59 3386.08,-92.74 3386.53,-99.73"/>
</g>
<!-- B7 -->
<g id="node9" class="node">
<title>B7</title>
<ellipse fill="none" stroke="black" cx="3894.48" cy="-90" rx="54.93" ry="18"/>
<text xml:space="preserve" text-anchor="middle" x="3894.48" y="-84.95" font-family="Times,serif" font-size="14.00">Wireframes</text>
</g>
<!-- A&#45;&gt;B7 -->
<g id="edge8" class="edge">
<title>A&#45;&gt;B7</title>
<path fill="none" stroke="black" d="M2494.65,-156.01C2703.24,-146.78 3162.46,-126.32 3549.48,-108 3646.93,-103.39 3759.86,-97.77 3829.23,-94.29"/>
<polygon fill="black" stroke="black" points="3829.08,-97.8 3838.89,-93.81 3828.73,-90.81 3829.08,-97.8"/>
</g>
<!-- B8 -->
<g id="node10" class="node">
<title>B8</title>
<ellipse fill="none" stroke="black" cx="4502.48" cy="-90" rx="109.19" ry="18"/>
<text xml:space="preserve" text-anchor="middle" x="4502.48" y="-84.95" font-family="Times,serif" font-size="14.00">Authentication &amp; Security</text>
</g>
<!-- A&#45;&gt;B8 -->
<g id="edge9" class="edge">
<title>A&#45;&gt;B8</title>
<path fill="none" stroke="black" d="M2497.02,-157.19C2865.99,-145.01 4013.51,-107.14 4385.08,-94.87"/>
<polygon fill="black" stroke="black" points="4384.99,-98.38 4394.87,-94.55 4384.76,-91.38 4384.99,-98.38"/>
</g>
<!-- B0_0 -->
<g id="node11" class="node">
<title>B0_0</title>
<ellipse fill="none" stroke="black" cx="78.48" cy="-18" rx="78.48" ry="18"/>
<text xml:space="preserve" text-anchor="middle" x="78.48" y="-12.95" font-family="Times,serif" font-size="14.00">Lyndsey (Farmer)</text>
</g>
<!-- B0&#45;&gt;B0_0 -->
<g id="edge10" class="edge">
<title>B0&#45;&gt;B0_0</title>
<path fill="none" stroke="black" d="M282.67,-76.4C242.14,-65.01 182.17,-48.15 137.7,-35.65"/>
<polygon fill="black" stroke="black" points="138.78,-32.32 128.2,-32.98 136.88,-39.06 138.78,-32.32"/>
</g>
<!-- B0_1 -->
<g id="node12" class="node">
<title>B0_1</title>
<ellipse fill="none" stroke="black" cx="243.48" cy="-18" rx="68.24" ry="18"/>
<text xml:space="preserve" text-anchor="middle" x="243.48" y="-12.95" font-family="Times,serif" font-size="14.00">Carol (Planner)</text>
</g>
<!-- B0&#45;&gt;B0_1 -->
<g id="edge11" class="edge">
<title>B0&#45;&gt;B0_1</title>
<path fill="none" stroke="black" d="M307.57,-72.41C296.9,-63.52 283.57,-52.41 271.83,-42.63"/>
<polygon fill="black" stroke="black" points="274.33,-40.15 264.4,-36.44 269.85,-45.53 274.33,-40.15"/>
</g>
<!-- B0_2 -->
<g id="node13" class="node">
<title>B0_2</title>
<ellipse fill="none" stroke="black" cx="410.48" cy="-18" rx="80.52" ry="18"/>
<text xml:space="preserve" text-anchor="middle" x="410.48" y="-12.95" font-family="Times,serif" font-size="14.00">Shane (Developer)</text>
</g>
<!-- B0&#45;&gt;B0_2 -->
<g id="edge12" class="edge">
<title>B0&#45;&gt;B0_2</title>
<path fill="none" stroke="black" d="M347.15,-72.41C357.51,-63.67 370.42,-52.79 381.87,-43.13"/>
<polygon fill="black" stroke="black" points="384.12,-45.81 389.5,-36.69 379.6,-40.46 384.12,-45.81"/>
</g>
<!-- B1_0 -->
<g id="node14" class="node">
<title>B1_0</title>
<ellipse fill="none" stroke="black" cx="592.48" cy="-18" rx="83.08" ry="18"/>
<text xml:space="preserve" text-anchor="middle" x="592.48" y="-12.95" font-family="Times,serif" font-size="14.00">View local weather</text>
</g>
<!-- B1&#45;&gt;B1_0 -->
<g id="edge13" class="edge">
<title>B1&#45;&gt;B1_0</title>
<path fill="none" stroke="black" d="M817.98,-74.58C770.98,-63 705.05,-46.75 656.61,-34.81"/>
<polygon fill="black" stroke="black" points="657.65,-31.46 647.1,-32.46 655.97,-38.25 657.65,-31.46"/>
</g>
<!-- B1_1 -->
<g id="node15" class="node">
<title>B1_1</title>
<ellipse fill="none" stroke="black" cx="778.48" cy="-18" rx="84.62" ry="18"/>
<text xml:space="preserve" text-anchor="middle" x="778.48" y="-12.95" font-family="Times,serif" font-size="14.00">Need real&#45;time data</text>
</g>
<!-- B1&#45;&gt;B1_1 -->
<g id="edge14" class="edge">
<title>B1&#45;&gt;B1_1</title>
<path fill="none" stroke="black" d="M852.75,-72.05C840.14,-63.05 824.46,-51.84 810.75,-42.05"/>
<polygon fill="black" stroke="black" points="813.05,-39.39 802.88,-36.43 808.98,-45.09 813.05,-39.39"/>
</g>
<!-- B1_2 -->
<g id="node16" class="node">
<title>B1_2</title>
<ellipse fill="none" stroke="black" cx="973.48" cy="-18" rx="92.81" ry="18"/>
<text xml:space="preserve" text-anchor="middle" x="973.48" y="-12.95" font-family="Times,serif" font-size="14.00">Users require filtering</text>
</g>
<!-- B1&#45;&gt;B1_2 -->
<g id="edge15" class="edge">
<title>B1&#45;&gt;B1_2</title>
<path fill="none" stroke="black" d="M899.96,-72.05C912.35,-63.11 927.74,-52.01 941.23,-42.27"/>
<polygon fill="black" stroke="black" points="942.92,-45.36 948.99,-36.67 938.83,-39.69 942.92,-45.36"/>
</g>
<!-- B2_0 -->
<g id="node17" class="node">
<title>B2_0</title>
<ellipse fill="none" stroke="black" cx="1156.48" cy="-18" rx="71.82" ry="18"/>
<text xml:space="preserve" text-anchor="middle" x="1156.48" y="-12.95" font-family="Times,serif" font-size="14.00">Part 1: Research</text>
</g>
<!-- B2&#45;&gt;B2_0 -->
<g id="edge16" class="edge">
<title>B2&#45;&gt;B2_0</title>
<path fill="none" stroke="black" d="M1365.6,-74.24C1321.65,-62.63 1260.55,-46.49 1215.74,-34.65"/>
<polygon fill="black" stroke="black" points="1216.75,-31.3 1206.18,-32.13 1214.96,-38.07 1216.75,-31.3"/>
</g>
<!-- B2_1 -->
<g id="node18" class="node">
<title>B2_1</title>
<ellipse fill="none" stroke="black" cx="1334.48" cy="-18" rx="88.2" ry="18"/>
<text xml:space="preserve" text-anchor="middle" x="1334.48" y="-12.95" font-family="Times,serif" font-size="14.00">Part 2: Development</text>
</g>
<!-- B2&#45;&gt;B2_1 -->
<g id="edge17" class="edge">
<title>B2&#45;&gt;B2_1</title>
<path fill="none" stroke="black" d="M1400.42,-72.05C1389.52,-63.28 1376.03,-52.43 1364.1,-42.83"/>
<polygon fill="black" stroke="black" points="1366.51,-40.28 1356.52,-36.74 1362.12,-45.73 1366.51,-40.28"/>
</g>
<!-- B2_2 -->
<g id="node19" class="node">
<title>B2_2</title>
<ellipse fill="none" stroke="black" cx="1508.48" cy="-18" rx="67.73" ry="18"/>
<text xml:space="preserve" text-anchor="middle" x="1508.48" y="-12.95" font-family="Times,serif" font-size="14.00">Part 3: Impacts</text>
</g>
<!-- B2&#45;&gt;B2_2 -->
<g id="edge18" class="edge">
<title>B2&#45;&gt;B2_2</title>
<path fill="none" stroke="black" d="M1442.54,-72.05C1453.52,-63.22 1467.12,-52.27 1479.12,-42.62"/>
<polygon fill="black" stroke="black" points="1481.13,-45.49 1486.73,-36.5 1476.75,-40.04 1481.13,-45.49"/>
</g>
<!-- B3_0 -->
<g id="node20" class="node">
<title>B3_0</title>
<ellipse fill="none" stroke="black" cx="1670.48" cy="-18" rx="75.92" ry="18"/>
<text xml:space="preserve" text-anchor="middle" x="1670.48" y="-12.95" font-family="Times,serif" font-size="14.00">JSON API access</text>
</g>
<!-- B3&#45;&gt;B3_0 -->
<g id="edge19" class="edge">
<title>B3&#45;&gt;B3_0</title>
<path fill="none" stroke="black" d="M1892.67,-74.15C1845.67,-62.49 1780.42,-46.29 1732.79,-34.47"/>
<polygon fill="black" stroke="black" points="1733.71,-31.09 1723.16,-32.08 1732.02,-37.88 1733.71,-31.09"/>
</g>
<!-- B3_1 -->
<g id="node21" class="node">
<title>B3_1</title>
<ellipse fill="none" stroke="black" cx="1853.48" cy="-18" rx="88.71" ry="18"/>
<text xml:space="preserve" text-anchor="middle" x="1853.48" y="-12.95" font-family="Times,serif" font-size="14.00">Secure data handling</text>
</g>
<!-- B3&#45;&gt;B3_1 -->
<g id="edge20" class="edge">
<title>B3&#45;&gt;B3_1</title>
<path fill="none" stroke="black" d="M1928.51,-72.05C1915.87,-63.11 1900.16,-52.01 1886.38,-42.27"/>
<polygon fill="black" stroke="black" points="1888.64,-39.58 1878.46,-36.66 1884.6,-45.29 1888.64,-39.58"/>
</g>
<!-- B3_2 -->
<g id="node22" class="node">
<title>B3_2</title>
<ellipse fill="none" stroke="black" cx="2052.48" cy="-18" rx="92.3" ry="18"/>
<text xml:space="preserve" text-anchor="middle" x="2052.48" y="-12.95" font-family="Times,serif" font-size="14.00">User&#45;specific filtering</text>
</g>
<!-- B3&#45;&gt;B3_2 -->
<g id="edge21" class="edge">
<title>B3&#45;&gt;B3_2</title>
<path fill="none" stroke="black" d="M1976.68,-72.05C1989.46,-63.11 2005.33,-52.01 2019.24,-42.27"/>
<polygon fill="black" stroke="black" points="2021.07,-45.26 2027.25,-36.66 2017.05,-39.52 2021.07,-45.26"/>
</g>
<!-- B4_0 -->
<g id="node23" class="node">
<title>B4_0</title>
<ellipse fill="none" stroke="black" cx="2224.48" cy="-18" rx="61.59" ry="18"/>
<text xml:space="preserve" text-anchor="middle" x="2224.48" y="-12.95" font-family="Times,serif" font-size="14.00">Login system</text>
</g>
<!-- B4&#45;&gt;B4_0 -->
<g id="edge22" class="edge">
<title>B4&#45;&gt;B4_0</title>
<path fill="none" stroke="black" d="M2345.46,-72.94C2322.35,-62.64 2292.22,-49.2 2267.81,-38.32"/>
<polygon fill="black" stroke="black" points="2269.33,-35.16 2258.77,-34.29 2266.48,-41.56 2269.33,-35.16"/>
</g>
<!-- B4_1 -->
<g id="node24" class="node">
<title>B4_1</title>
<ellipse fill="none" stroke="black" cx="2381.48" cy="-18" rx="76.94" ry="18"/>
<text xml:space="preserve" text-anchor="middle" x="2381.48" y="-12.95" font-family="Times,serif" font-size="14.00">Dashboard output</text>
</g>
<!-- B4&#45;&gt;B4_1 -->
<g id="edge23" class="edge">
<title>B4&#45;&gt;B4_1</title>
<path fill="none" stroke="black" d="M2381.48,-71.7C2381.48,-64.41 2381.48,-55.73 2381.48,-47.54"/>
<polygon fill="black" stroke="black" points="2384.98,-47.62 2381.48,-37.62 2377.98,-47.62 2384.98,-47.62"/>
</g>
<!-- B4_2 -->
<g id="node25" class="node">
<title>B4_2</title>
<ellipse fill="none" stroke="black" cx="2562.48" cy="-18" rx="85.64" ry="18"/>
<text xml:space="preserve" text-anchor="middle" x="2562.48" y="-12.95" font-family="Times,serif" font-size="14.00">Settings/preferences</text>
</g>
<!-- B4&#45;&gt;B4_2 -->
<g id="edge24" class="edge">
<title>B4&#45;&gt;B4_2</title>
<path fill="none" stroke="black" d="M2422.1,-73.29C2448.81,-62.96 2483.95,-49.37 2512.39,-38.37"/>
<polygon fill="black" stroke="black" points="2513.45,-41.71 2521.51,-34.84 2510.93,-35.18 2513.45,-41.71"/>
</g>
<!-- B5_0 -->
<g id="node26" class="node">
<title>B5_0</title>
<ellipse fill="none" stroke="black" cx="2771.48" cy="-18" rx="105.09" ry="18"/>
<text xml:space="preserve" text-anchor="middle" x="2771.48" y="-12.95" font-family="Times,serif" font-size="14.00">Farmer: Rainfall + Temp</text>
</g>
<!-- B5&#45;&gt;B5_0 -->
<g id="edge25" class="edge">
<title>B5&#45;&gt;B5_0</title>
<path fill="none" stroke="black" d="M2852.91,-73.29C2839.09,-64.08 2821.38,-52.27 2806.01,-42.02"/>
<polygon fill="black" stroke="black" points="2808.32,-39.35 2798.06,-36.72 2804.43,-45.18 2808.32,-39.35"/>
</g>
<!-- B5_1 -->
<g id="node27" class="node">
<title>B5_1</title>
<ellipse fill="none" stroke="black" cx="2982.48" cy="-18" rx="87.69" ry="18"/>
<text xml:space="preserve" text-anchor="middle" x="2982.48" y="-12.95" font-family="Times,serif" font-size="14.00">Planner: UV + Wind</text>
</g>
<!-- B5&#45;&gt;B5_1 -->
<g id="edge26" class="edge">
<title>B5&#45;&gt;B5_1</title>
<path fill="none" stroke="black" d="M2900.27,-73.29C2914.32,-64.01 2932.36,-52.1 2947.95,-41.8"/>
<polygon fill="black" stroke="black" points="2949.61,-44.9 2956.03,-36.47 2945.75,-39.06 2949.61,-44.9"/>
</g>
<!-- B5_2 -->
<g id="node28" class="node">
<title>B5_2</title>
<ellipse fill="none" stroke="black" cx="3207.48" cy="-18" rx="119.42" ry="18"/>
<text xml:space="preserve" text-anchor="middle" x="3207.48" y="-12.95" font-family="Times,serif" font-size="14.00">Developer: Solar + Wind Dir</text>
</g>
<!-- B5&#45;&gt;B5_2 -->
<g id="edge27" class="edge">
<title>B5&#45;&gt;B5_2</title>
<path fill="none" stroke="black" d="M2922.5,-79.27C2975.9,-67.97 3064.83,-49.17 3129.16,-35.56"/>
<polygon fill="black" stroke="black" points="3129.53,-39.06 3138.59,-33.57 3128.08,-32.21 3129.53,-39.06"/>
</g>
<!-- B6_0 -->
<g id="node29" class="node">
<title>B6_0</title>
<ellipse fill="none" stroke="black" cx="3467.48" cy="-18" rx="123" ry="18"/>
<text xml:space="preserve" text-anchor="middle" x="3467.48" y="-12.95" font-family="Times,serif" font-size="14.00">API → Transform → Display</text>
</g>
<!-- B6&#45;&gt;B6_0 -->
<g id="edge28" class="edge">
<title>B6&#45;&gt;B6_0</title>
<path fill="none" stroke="black" d="M3467.48,-71.7C3467.48,-64.41 3467.48,-55.73 3467.48,-47.54"/>
<polygon fill="black" stroke="black" points="3470.98,-47.62 3467.48,-37.62 3463.98,-47.62 3470.98,-47.62"/>
</g>
<!-- B6_1 -->
<g id="node30" class="node">
<title>B6_1</title>
<ellipse fill="none" stroke="black" cx="3704.48" cy="-18" rx="96.39" ry="18"/>
<text xml:space="preserve" text-anchor="middle" x="3704.48" y="-12.95" font-family="Times,serif" font-size="14.00">User filters apply logic</text>
</g>
<!-- B6&#45;&gt;B6_1 -->
<g id="edge29" class="edge">
<title>B6&#45;&gt;B6_1</title>
<path fill="none" stroke="black" d="M3512.89,-75.59C3549.95,-64.64 3602.66,-49.07 3643.41,-37.04"/>
<polygon fill="black" stroke="black" points="3644.24,-40.44 3652.84,-34.25 3642.26,-33.73 3644.24,-40.44"/>
</g>
<!-- B7_0 -->
<g id="node31" class="node">
<title>B7_0</title>
<ellipse fill="none" stroke="black" cx="3894.48" cy="-18" rx="75.41" ry="18"/>
<text xml:space="preserve" text-anchor="middle" x="3894.48" y="-12.95" font-family="Times,serif" font-size="14.00">Login Wireframe</text>
</g>
<!-- B7&#45;&gt;B7_0 -->
<g id="edge30" class="edge">
<title>B7&#45;&gt;B7_0</title>
<path fill="none" stroke="black" d="M3894.48,-71.7C3894.48,-64.41 3894.48,-55.73 3894.48,-47.54"/>
<polygon fill="black" stroke="black" points="3897.98,-47.62 3894.48,-37.62 3890.98,-47.62 3897.98,-47.62"/>
</g>
<!-- B7_1 -->
<g id="node32" class="node">
<title>B7_1</title>
<ellipse fill="none" stroke="black" cx="4081.48" cy="-18" rx="93.32" ry="18"/>
<text xml:space="preserve" text-anchor="middle" x="4081.48" y="-12.95" font-family="Times,serif" font-size="14.00">Dashboard Wireframe</text>
</g>
<!-- B7&#45;&gt;B7_1 -->
<g id="edge31" class="edge">
<title>B7&#45;&gt;B7_1</title>
<path fill="none" stroke="black" d="M3929.65,-75.83C3957.79,-65.3 3997.66,-50.38 4029.48,-38.47"/>
<polygon fill="black" stroke="black" points="4030.38,-41.87 4038.51,-35.08 4027.92,-35.31 4030.38,-41.87"/>
</g>
<!-- B8_0 -->
<g id="node33" class="node">
<title>B8_0</title>
<ellipse fill="none" stroke="black" cx="4307.48" cy="-18" rx="114.3" ry="18"/>
<text xml:space="preserve" text-anchor="middle" x="4307.48" y="-12.95" font-family="Times,serif" font-size="14.00">SHA256 Password Hashing</text>
</g>
<!-- B8&#45;&gt;B8_0 -->
<g id="edge32" class="edge">
<title>B8&#45;&gt;B8_0</title>
<path fill="none" stroke="black" d="M4458.23,-73.12C4429.91,-62.95 4392.94,-49.68 4362.7,-38.82"/>
<polygon fill="black" stroke="black" points="4363.91,-35.54 4353.31,-35.45 4361.54,-42.13 4363.91,-35.54"/>
</g>
<!-- B8_1 -->
<g id="node34" class="node">
<title>B8_1</title>
<ellipse fill="none" stroke="black" cx="4502.48" cy="-18" rx="62.61" ry="18"/>
<text xml:space="preserve" text-anchor="middle" x="4502.48" y="-12.95" font-family="Times,serif" font-size="14.00">No PII Stored</text>
</g>
<!-- B8&#45;&gt;B8_1 -->
<g id="edge33" class="edge">
<title>B8&#45;&gt;B8_1</title>
<path fill="none" stroke="black" d="M4502.48,-71.7C4502.48,-64.41 4502.48,-55.73 4502.48,-47.54"/>
<polygon fill="black" stroke="black" points="4505.98,-47.62 4502.48,-37.62 4498.98,-47.62 4505.98,-47.62"/>
</g>
<!-- B8_2 -->
<g id="node35" class="node">
<title>B8_2</title>
<ellipse fill="none" stroke="black" cx="4655.48" cy="-18" rx="72.85" ry="18"/>
<text xml:space="preserve" text-anchor="middle" x="4655.48" y="-12.95" font-family="Times,serif" font-size="14.00">HTTPS Protocol</text>
</g>
<!-- B8&#45;&gt;B8_2 -->
<g id="edge34" class="edge">
<title>B8&#45;&gt;B8_2</title>
<path fill="none" stroke="black" d="M4538.35,-72.59C4560.25,-62.57 4588.42,-49.68 4611.64,-39.05"/>
<polygon fill="black" stroke="black" points="4612.91,-42.32 4620.55,-34.98 4610,-35.96 4612.91,-42.32"/>
</g>
<!-- B8_3 -->
<g id="node36" class="node">
<title>B8_3</title>
<ellipse fill="none" stroke="black" cx="4845.48" cy="-18" rx="98.95" ry="18"/>
<text xml:space="preserve" text-anchor="middle" x="4845.48" y="-12.95" font-family="Times,serif" font-size="14.00">Validation and Filtering</text>
</g>
<!-- B8&#45;&gt;B8_3 -->
<g id="edge35" class="edge">
<title>B8&#45;&gt;B8_3</title>
<path fill="none" stroke="black" d="M4569.02,-75.42C4626.79,-63.63 4710.38,-46.57 4770.5,-34.3"/>
<polygon fill="black" stroke="black" points="4770.86,-37.8 4779.96,-32.37 4769.46,-30.94 4770.86,-37.8"/>
</g>
</g>
</svg>
